<svg width="1233" height="622" viewBox="0 0 1233 622" fill="none" xmlns="http://www.w3.org/2000/svg">
<path fill-rule="evenodd" clip-rule="evenodd" d="M667.146 23.732C783.071 10.4604 906.5 73.9605 963.5 196.981C908.027 196.981 907.771 197.961 854.796 197.961C834.5 172.461 816.5 153.961 777 135.17C726 111.96 680.728 110.109 629 127.753C559.5 151.46 522.182 206.517 504.995 254.199C502.279 262.547 499.956 271.118 497.954 279.898C477.814 368.228 422.067 424.827 331.826 447.758C317.839 451.313 302.882 452.451 288.355 452.576C225.945 453.11 163.528 452.848 101.114 452.876C98.9962 452.877 96.8783 452.876 94.2569 452.876V619.96H0V23.0191C1.81225 23.0191 3.43137 23.0191 5.05028 23.0191C98.9223 23.0225 192.795 22.8428 286.666 23.0943C347.333 23.257 398.326 46.2847 441.513 86.9752C442.109 87.5369 442.683 88.1254 443.218 88.7418C443.422 88.9769 443.489 89.3255 443.784 90.0006C420.713 113.95 402.459 141.202 389.024 172.279C387.857 170.776 386.923 169.608 386.027 168.413C364.314 139.442 335.955 120.946 298.971 116.212C293.714 115.538 288.351 115.424 283.037 115.42C221.954 115.377 160.871 115.402 99.7874 115.422C98.1525 115.423 96.5177 115.569 94.5458 115.664V359.876C96.9457 359.876 99.0691 359.875 101.192 359.876C162.275 359.895 223.358 359.937 284.442 359.926C336.951 359.917 383.99 326.984 400.782 278.756C401.278 276.171 401.815 273.886 402.42 271.982C418.907 192.732 448.895 134.225 512.363 84.649C557.799 49.1593 609.439 28.0983 667.146 23.732ZM346.804 33.9889C323.244 27.8108 299.291 24.2957 274.568 24.8648C235.814 25.7569 197.023 25.0981 158.247 25.0982C108.488 25.0983 58.7292 25.0939 8.97025 25.1099C2.28171 25.1121 1.94217 25.4703 1.92582 32.0299C1.90333 41.0642 1.92637 50.099 1.9268 59.1334C1.92966 119.892 1.93144 180.65 1.93363 241.409C1.93659 323.897 1.94199 406.385 1.94144 488.873C1.94119 525.681 1.90354 562.489 1.95998 599.296C1.96593 603.165 2.73098 607.034 2.71743 610.901C2.71446 611.745 2.8008 612.495 2.9634 613.16C2.85536 612.593 2.79897 611.968 2.80137 611.282C2.81494 607.413 2.0489 603.542 2.04295 599.672C1.9865 562.851 2.02416 526.029 2.02441 489.207C2.02495 406.687 2.01955 324.167 2.0166 241.647C2.0144 180.865 2.01263 120.083 2.00976 59.3014C2.00934 50.2636 1.98629 41.2258 2.00879 32.1881C2.02513 25.6258 2.36472 25.2674 9.05419 25.2652C58.8211 25.2492 108.589 25.2536 158.356 25.2535C197.137 25.2534 235.935 25.9125 274.695 25.0201C299.422 24.4507 323.379 27.9676 346.943 34.1481C357.888 37.0189 368.161 42.4472 378.579 47.0611C385.816 50.2668 392.897 53.8567 399.841 57.6363C411.961 64.2338 422.374 73.0525 432.541 82.1705C434.715 84.1206 436.311 85.5497 437.366 86.7349C436.315 85.5156 434.672 84.0411 432.388 81.9937C422.223 72.8792 411.812 64.0633 399.693 57.4683C392.751 53.6903 385.672 50.1023 378.436 46.898C368.02 42.2859 357.748 36.8586 346.804 33.9889ZM399.163 289.036C392.482 304.034 383.03 317.547 370.137 329.001C355.93 341.622 339.996 352.509 320.506 356.647C311.761 358.504 302.984 361.347 294.166 361.556C258.285 362.406 222.382 362.444 186.486 362.68C181.852 362.711 177.215 361.94 172.576 361.908C157.341 361.803 142.104 361.859 126.868 361.878C123.877 361.881 120.886 362.039 117.895 362.049C112.109 362.07 106.282 362.456 100.546 361.927C95.2331 361.438 93.1716 361.143 92.3691 359.019C93.0969 361.403 95.1025 361.702 100.644 362.212C106.381 362.741 112.209 362.355 117.996 362.335C120.988 362.324 123.98 362.166 126.971 362.163C142.21 362.144 157.449 362.089 172.687 362.193C177.326 362.225 181.964 362.996 186.599 362.965C222.5 362.729 258.409 362.69 294.296 361.84C303.115 361.631 311.893 358.788 320.64 356.93C340.133 352.791 356.07 341.899 370.28 329.273C383.011 317.96 392.387 304.64 399.055 289.863C399.092 289.586 399.126 289.31 399.163 289.036Z" fill="black"/>
<path d="M1232.26 322.806C1175.24 370.689 1118.55 418.289 1061.09 466.539V370.217H983.87C970.298 449.585 931.623 514.053 867.29 562.542C821.236 597.253 769.219 617.433 711.418 620.816C584.819 628.227 481.183 555.55 430.869 462.085C459.496 442.3 483.332 417.769 501.491 386.494C520.602 437.659 552.37 477.416 600.342 502.749C648.547 528.205 699.141 533.184 751.328 516.869C835.084 490.683 878.176 417.76 886.713 369.89H692.998V274.466H1060.75V179.493L1232.26 322.806Z" fill="black"/>
<path fill-rule="evenodd" clip-rule="evenodd" d="M667.146 1.73202C783.071 -11.5396 906.5 51.9605 963.5 174.981C908.027 174.981 907.771 175.961 854.796 175.961C834.5 150.461 816.5 131.961 777 113.17C726 89.9604 680.728 88.1085 629 105.753C559.5 129.46 522.182 184.517 504.995 232.199C502.279 240.547 499.956 249.118 497.954 257.898C477.814 346.228 422.067 402.827 331.826 425.758C317.839 429.313 302.882 430.451 288.355 430.576C225.945 431.11 163.528 430.848 101.114 430.876C98.9962 430.877 96.8783 430.876 94.2569 430.876V597.96H0V1.01913C1.81225 1.01913 3.43137 1.01907 5.05028 1.01913C98.9223 1.02251 192.795 0.842812 286.666 1.09432C347.333 1.25696 398.326 24.2847 441.513 64.9752C442.109 65.5369 442.683 66.1254 443.218 66.7418C443.422 66.9769 443.489 67.3255 443.784 68.0006C420.713 91.9497 402.459 119.202 389.024 150.279C387.857 148.776 386.923 147.608 386.027 146.413C364.314 117.442 335.955 98.9461 298.971 94.2115C293.714 93.5385 288.351 93.4243 283.037 93.4205C221.954 93.3768 160.871 93.4021 99.7874 93.4224C98.1525 93.423 96.5177 93.5693 94.5458 93.6637V337.876C96.9457 337.876 99.0691 337.875 101.192 337.876C162.275 337.895 223.358 337.937 284.442 337.926C336.951 337.917 383.99 304.984 400.782 256.756C401.278 254.171 401.815 251.886 402.42 249.982C418.907 170.732 448.895 112.225 512.363 62.649C557.799 27.1593 609.439 6.09828 667.146 1.73202ZM346.804 11.9889C323.244 5.81082 299.291 2.29566 274.568 2.86483C235.814 3.75692 197.023 3.09811 158.247 3.09823C108.488 3.09835 58.7292 3.09391 8.97025 3.10995C2.28171 3.11215 1.94217 3.47027 1.92582 10.0299C1.90333 19.0642 1.92637 28.099 1.9268 37.1334C1.92966 97.8918 1.93144 158.65 1.93363 219.409C1.93659 301.897 1.94199 384.385 1.94144 466.873C1.94119 503.681 1.90354 540.489 1.95998 577.296C1.96593 581.165 2.73098 585.034 2.71743 588.901C2.71446 589.745 2.8008 590.495 2.9634 591.16C2.85536 590.593 2.79897 589.968 2.80137 589.282C2.81494 585.413 2.0489 581.542 2.04295 577.672C1.9865 540.851 2.02416 504.029 2.02441 467.207C2.02495 384.687 2.01955 302.167 2.0166 219.647C2.0144 158.865 2.01263 98.0831 2.00976 37.3014C2.00934 28.2636 1.98629 19.2258 2.00879 10.1881C2.02513 3.62576 2.36472 3.26743 9.05419 3.26522C58.8211 3.24918 108.589 3.25362 158.356 3.2535C197.137 3.25339 235.935 3.91253 274.695 3.02011C299.422 2.45074 323.379 5.96758 346.943 12.1481C357.888 15.0189 368.161 20.4473 378.579 25.0611C385.816 28.2668 392.897 31.8567 399.841 35.6363C411.961 42.2338 422.374 51.0525 432.541 60.1705C434.715 62.1206 436.311 63.5497 437.366 64.7349C436.315 63.5156 434.672 62.0411 432.388 59.9937C422.223 50.8792 411.812 42.0633 399.693 35.4683C392.751 31.6903 385.672 28.1023 378.436 24.898C368.02 20.2859 357.748 14.8586 346.804 11.9889ZM399.163 267.036C392.482 282.034 383.03 295.547 370.137 307.001C355.93 319.622 339.996 330.509 320.506 334.647C311.761 336.504 302.984 339.347 294.166 339.556C258.285 340.406 222.382 340.444 186.486 340.68C181.852 340.711 177.215 339.94 172.576 339.908C157.341 339.803 142.104 339.859 126.868 339.878C123.877 339.881 120.886 340.039 117.895 340.049C112.109 340.07 106.282 340.456 100.546 339.927C95.2331 339.438 93.1716 339.143 92.3691 337.019C93.0969 339.403 95.1025 339.702 100.644 340.212C106.381 340.741 112.209 340.355 117.996 340.335C120.988 340.324 123.98 340.166 126.971 340.163C142.21 340.144 157.449 340.089 172.687 340.193C177.326 340.225 181.964 340.996 186.599 340.965C222.5 340.729 258.409 340.69 294.296 339.84C303.115 339.631 311.893 336.788 320.64 334.93C340.133 330.791 356.07 319.899 370.28 307.273C383.011 295.96 392.387 282.64 399.055 267.863C399.092 267.586 399.126 267.31 399.163 267.036Z" fill="#FFC321"/>
<path d="M1232.26 300.806C1175.24 348.689 1118.55 396.289 1061.09 444.539V348.217H983.87C970.298 427.585 931.623 492.053 867.29 540.542C821.236 575.253 769.219 595.433 711.418 598.816C584.819 606.227 481.183 533.55 430.869 440.085C459.496 420.3 483.332 395.769 501.491 364.494C520.602 415.659 552.37 455.416 600.342 480.749C648.547 506.205 699.141 511.184 751.328 494.869C835.084 468.683 878.176 395.76 886.713 347.89H692.998V252.466H1060.75V157.493L1232.26 300.806Z" fill="#FFC321"/>
</svg>
