<svg xmlns="http://www.w3.org/2000/svg" viewBox="0 0 480 500" width="480" height="500" fill="none">
  <defs>
    <linearGradient id="bg" x1="0" y1="0" x2="0" y2="1"><stop offset="0" stop-color="#15151b"></stop><stop offset="1" stop-color="#0b0b0e"></stop></linearGradient>
    <radialGradient id="glow" cx="72%" cy="26%" r="60%"><stop offset="0" stop-color="#FFC321" stop-opacity=".34"></stop><stop offset="60%" stop-color="#FFC321" stop-opacity="0"></stop></radialGradient>
    <radialGradient id="glow2" cx="20%" cy="82%" r="55%"><stop offset="0" stop-color="#79D0BF" stop-opacity=".2"></stop><stop offset="65%" stop-color="#79D0BF" stop-opacity="0"></stop></radialGradient>
    <linearGradient id="fig" x1="0" y1="0" x2="1" y2="1"><stop offset="0" stop-color="#ffe79a"></stop><stop offset=".5" stop-color="#FFC321"></stop><stop offset="1" stop-color="#ff9e00"></stop></linearGradient>
  </defs>
  <rect width="480" height="500" fill="url(#bg)"></rect>
  <rect width="480" height="500" fill="url(#glow)"></rect>
  <rect width="480" height="500" fill="url(#glow2)"></rect>
  <g stroke="#ffffff" stroke-opacity=".04" stroke-width="1">
    <line x1="80" y1="0" x2="80" y2="500"></line><line x1="160" y1="0" x2="160" y2="500"></line><line x1="240" y1="0" x2="240" y2="500"></line><line x1="320" y1="0" x2="320" y2="500"></line><line x1="400" y1="0" x2="400" y2="500"></line>
    <line x1="0" y1="90" x2="480" y2="90"></line><line x1="0" y1="180" x2="480" y2="180"></line><line x1="0" y1="270" x2="480" y2="270"></line><line x1="0" y1="360" x2="480" y2="360"></line><line x1="0" y1="450" x2="480" y2="450"></line>
  </g>
  
  <ellipse cx="240" cy="196" rx="128" ry="128" stroke="#ffffff" stroke-opacity=".06" stroke-width="1.5"></ellipse>
  <ellipse cx="240" cy="196" rx="128" ry="52" stroke="#79D0BF" stroke-opacity=".35" stroke-width="1.5" transform="rotate(-24 240 196)"></ellipse>
  <circle cx="352" cy="150" r="5" fill="#79D0BF"></circle>
  <circle cx="128" cy="238" r="4" fill="#FFC321"></circle>
  <circle cx="240" cy="68" r="3.5" fill="#fff6c2"></circle>
  
  <g stroke="url(#fig)" stroke-width="8" stroke-linecap="round" stroke-linejoin="round" fill="none">
    <circle cx="240" cy="196" r="62"></circle>
    <path d="M138 372c6-64 44-96 102-96s96 32 102 96"></path>
  </g>
  
  <text x="240" y="352" text-anchor="middle" font-family="&#39;Plus Jakarta Sans&#39;,sans-serif" font-size="30" font-weight="800" fill="#0b0b0e" opacity=".0">AK</text>
  
  <g>
    <rect x="60" y="120" width="70" height="46" rx="9" fill="#16161b" stroke="#ffffff" stroke-opacity=".09"></rect>
    <rect x="72" y="133" width="30" height="6" rx="3" fill="#FFC321"></rect>
    <rect x="72" y="146" width="46" height="5" rx="2.5" fill="#ffffff" fill-opacity=".14"></rect>
    <rect x="352" y="300" width="74" height="52" rx="10" fill="#16161b" stroke="#ffffff" stroke-opacity=".09"></rect>
    <rect x="364" y="314" width="32" height="6" rx="3" fill="#79D0BF"></rect>
    <g transform="translate(364,332)">
      <rect x="0" y="6" width="8" height="8" rx="2" fill="#ffffff" fill-opacity=".18"></rect>
      <rect x="12" y="2" width="8" height="12" rx="2" fill="#ffffff" fill-opacity=".18"></rect>
      <rect x="24" y="-2" width="8" height="16" rx="2" fill="#FFC321"></rect>
    </g>
  </g>
</svg>